<svg width="300" height="300" viewBox="0 0 300 300" fill="none" xmlns="http://www.w3.org/2000/svg">
<g clip-path="url(#clip0_120_1420)">
<rect width="300" height="300" rx="20" fill="#0E0E0E"/>

<!-- "Secure AI" text - updated from "Job Delivery" -->
<text 
  x="50%" 
  y="50%" 
  text-anchor="middle" 
  fill="#D9D9D9" 
  font-family="Inter, Arial, sans-serif" 
  font-size="17" 
  font-weight="600"
  letter-spacing="0.5"
>
  Secure AI
</text>

<path d="M261.25 184.533H262.333C263.417 184.533 264.317 183.567 264.317 182.4C264.317 180.95 263.8 180.667 262.95 180.367L261.267 179.783V184.533H261.25Z" fill="#292D32"/>
<path d="M261.25 184.533H262.333C263.417 184.533 264.317 183.567 264.317 182.4C264.317 180.95 263.8 180.667 262.95 180.367L261.267 179.783V184.533H261.25Z" fill="url(#paint0_linear_120_1420)"/>
<path d="M259.95 161.167C250.75 161.2 243.3 168.683 243.333 177.883C243.367 187.083 250.85 194.533 260.05 194.5C269.25 194.467 276.7 186.983 276.667 177.783C276.633 168.583 269.15 161.15 259.95 161.167ZM263.767 178C265.067 178.45 266.817 179.417 266.817 182.4C266.817 184.967 264.8 187.033 262.333 187.033H261.25V188C261.25 188.683 260.683 189.25 260 189.25C259.317 189.25 258.75 188.683 258.75 188V187.033H258.15C255.417 187.033 253.2 184.733 253.2 181.9C253.2 181.217 253.767 180.65 254.45 180.65C255.133 180.65 255.7 181.217 255.7 181.9C255.7 183.35 256.8 184.533 258.15 184.533H258.75V178.9L256.233 178C254.933 177.55 253.183 176.583 253.183 173.6C253.183 171.033 255.2 168.967 257.667 168.967H258.75V168C258.75 167.317 259.317 166.75 260 166.75C260.683 166.75 261.25 167.317 261.25 168V168.967H261.85C264.583 168.967 266.8 171.267 266.8 174.1C266.8 174.783 266.233 175.35 265.55 175.35C264.867 175.35 264.3 174.783 264.3 174.1C264.3 172.65 263.2 171.467 261.85 171.467H261.25V177.1L263.767 178Z" fill="#292D32"/>
<path d="M259.95 161.167C250.75 161.2 243.3 168.683 243.333 177.883C243.367 187.083 250.85 194.533 260.05 194.5C269.25 194.467 276.7 186.983 276.667 177.783C276.633 168.583 269.15 161.15 259.95 161.167ZM263.767 178C265.067 178.45 266.817 179.417 266.817 182.4C266.817 184.967 264.8 187.033 262.333 187.033H261.25V188C261.25 188.683 260.683 189.25 260 189.25C259.317 189.25 258.75 188.683 258.75 188V187.033H258.15C255.417 187.033 253.2 184.733 253.2 181.9C253.2 181.217 253.767 180.65 254.45 180.65C255.133 180.65 255.7 181.217 255.7 181.9C255.7 183.35 256.8 184.533 258.15 184.533H258.75V178.9L256.233 178C254.933 177.55 253.183 176.583 253.183 173.6C253.183 171.033 255.2 168.967 257.667 168.967H258.75V168C258.75 167.317 259.317 166.75 260 166.75C260.683 166.75 261.25 167.317 261.25 168V168.967H261.85C264.583 168.967 266.8 171.267 266.8 174.1C266.8 174.783 266.233 175.35 265.55 175.35C264.867 175.35 264.3 174.783 264.3 174.1C264.3 172.65 263.2 171.467 261.85 171.467H261.25V177.1L263.767 178Z" fill="url(#paint1_linear_120_1420)"/>
<path d="M255.7 173.617C255.7 175.067 256.217 175.35 257.067 175.65L258.75 176.233V171.467H257.667C256.583 171.467 255.7 172.433 255.7 173.617Z" fill="#292D32"/>
<path d="M255.7 173.617C255.7 175.067 256.217 175.35 257.067 175.65L258.75 176.233V171.467H257.667C256.583 171.467 255.7 172.433 255.7 173.617Z" fill="url(#paint2_linear_120_1420)"/>
<path d="M77.91 90.315L74.295 98.73H70.68C70.08 98.73 69.495 98.775 68.925 98.895L70.425 95.295L70.485 95.16L70.575 94.92C70.62 94.815 70.65 94.725 70.695 94.65C72.435 90.615 74.385 89.355 77.91 90.315Z" fill="#292D32"/>
<path d="M77.91 90.315L74.295 98.73H70.68C70.08 98.73 69.495 98.775 68.925 98.895L70.425 95.295L70.485 95.16L70.575 94.92C70.62 94.815 70.65 94.725 70.695 94.65C72.435 90.615 74.385 89.355 77.91 90.315Z" fill="url(#paint3_linear_120_1420)"/>
<path d="M88.0949 99.135L88.0649 99.12C87.1649 98.865 86.2499 98.73 85.3199 98.73H75.9299L79.3049 90.885L79.3499 90.78C79.5599 90.855 79.7849 90.96 80.0099 91.035L83.3249 92.43C85.1699 93.195 86.4599 93.99 87.2549 94.95C87.3899 95.13 87.5099 95.295 87.6299 95.49C87.7649 95.7 87.8699 95.91 87.9299 96.135C87.9899 96.27 88.0349 96.39 88.0649 96.525C88.2899 97.29 88.3049 98.16 88.0949 99.135Z" fill="#292D32"/>
<path d="M88.0949 99.135L88.0649 99.12C87.1649 98.865 86.2499 98.73 85.3199 98.73H75.9299L79.3049 90.885L79.3499 90.78C79.5599 90.855 79.7849 90.96 80.0099 91.035L83.3249 92.43C85.1699 93.195 86.4599 93.99 87.2549 94.95C87.3899 95.13 87.5099 95.295 87.6299 95.49C87.7649 95.7 87.8699 95.91 87.9299 96.135C87.9899 96.27 88.0349 96.39 88.0649 96.525C88.2899 97.29 88.3049 98.16 88.0949 99.135Z" fill="url(#paint4_linear_120_1420)"/>
<path d="M78.78 113.49H79.155C79.605 113.49 79.98 113.085 79.98 112.59C79.98 111.96 79.8 111.87 79.41 111.72L78.78 111.495V113.49Z" fill="#292D32"/>
<path d="M78.78 113.49H79.155C79.605 113.49 79.98 113.085 79.98 112.59C79.98 111.96 79.8 111.87 79.41 111.72L78.78 111.495V113.49Z" fill="url(#paint5_linear_120_1420)"/>
<path d="M87.4351 101.28C86.7601 101.085 86.0551 100.98 85.3201 100.98H70.6801C69.6601 100.98 68.7001 101.175 67.8001 101.565C65.1901 102.69 63.3601 105.285 63.3601 108.3V111.225C63.3601 111.585 63.3901 111.93 63.4351 112.29C63.7651 117.06 66.3151 119.61 71.0851 119.925C71.4301 119.97 71.7751 120 72.1501 120H83.8501C89.4001 120 92.3251 117.36 92.6101 112.11C92.6251 111.825 92.6401 111.525 92.6401 111.225V108.3C92.6401 104.985 90.4351 102.195 87.4351 101.28ZM79.9201 110.25C80.6101 110.49 81.5401 111 81.5401 112.59C81.5401 113.955 80.4751 115.05 79.1551 115.05H78.7801V115.38C78.7801 115.815 78.4351 116.16 78.0001 116.16C77.5651 116.16 77.2201 115.815 77.2201 115.38V115.05H77.0851C75.6451 115.05 74.4601 113.835 74.4601 112.335C74.4601 111.9 74.8051 111.555 75.2401 111.555C75.6751 111.555 76.0201 111.9 76.0201 112.335C76.0201 112.965 76.5001 113.49 77.0851 113.49H77.2201V110.955L76.0801 110.55C75.3901 110.31 74.4601 109.8 74.4601 108.21C74.4601 106.845 75.5251 105.75 76.8451 105.75H77.2201V105.42C77.2201 104.985 77.5651 104.64 78.0001 104.64C78.4351 104.64 78.7801 104.985 78.7801 105.42V105.75H78.9151C80.3551 105.75 81.5401 106.965 81.5401 108.465C81.5401 108.9 81.1951 109.245 80.7601 109.245C80.3251 109.245 79.9801 108.9 79.9801 108.465C79.9801 107.835 79.5001 107.31 78.9151 107.31H78.7801V109.845L79.9201 110.25Z" fill="#292D32"/>
<path d="M87.4351 101.28C86.7601 101.085 86.0551 100.98 85.3201 100.98H70.6801C69.6601 100.98 68.7001 101.175 67.8001 101.565C65.1901 102.69 63.3601 105.285 63.3601 108.3V111.225C63.3601 111.585 63.3901 111.93 63.4351 112.29C63.7651 117.06 66.3151 119.61 71.0851 119.925C71.4301 119.97 71.7751 120 72.1501 120H83.8501C89.4001 120 92.3251 117.36 92.6101 112.11C92.6251 111.825 92.6401 111.525 92.6401 111.225V108.3C92.6401 104.985 90.4351 102.195 87.4351 101.28ZM79.9201 110.25C80.6101 110.49 81.5401 111 81.5401 112.59C81.5401 113.955 80.4751 115.05 79.1551 115.05H78.7801V115.38C78.7801 115.815 78.4351 116.16 78.0001 116.16C77.5651 116.16 77.2201 115.815 77.2201 115.38V115.05H77.0851C75.6451 115.05 74.4601 113.835 74.4601 112.335C74.4601 111.9 74.8051 111.555 75.2401 111.555C75.6751 111.555 76.0201 111.9 76.0201 112.335C76.0201 112.965 76.5001 113.49 77.0851 113.49H77.2201V110.955L76.0801 110.55C75.3901 110.31 74.4601 109.8 74.4601 108.21C74.4601 106.845 75.5251 105.75 76.8451 105.75H77.2201V105.42C77.2201 104.985 77.5651 104.64 78.0001 104.64C78.4351 104.64 78.7801 104.985 78.7801 105.42V105.75H78.9151C80.3551 105.75 81.5401 106.965 81.5401 108.465C81.5401 108.9 81.1951 109.245 80.7601 109.245C80.3251 109.245 79.9801 108.9 79.9801 108.465C79.9801 107.835 79.5001 107.31 78.9151 107.31H78.7801V109.845L79.9201 110.25Z" fill="url(#paint6_linear_120_1420)"/>
<path d="M76.02 108.21C76.02 108.84 76.2 108.93 76.59 109.08L77.22 109.305V107.31H76.845C76.38 107.31 76.02 107.715 76.02 108.21Z" fill="#292D32"/>
<path d="M76.02 108.21C76.02 108.84 76.2 108.93 76.59 109.08L77.22 109.305V107.31H76.845C76.38 107.31 76.02 107.715 76.02 108.21Z" fill="url(#paint7_linear_120_1420)"/>
<path d="M155.587 22.6667H144.413C139.56 22.6667 136.667 25.56 136.667 30.4134V41.5734C136.667 46.44 139.56 49.3334 144.413 49.3334H155.573C160.427 49.3334 163.32 46.44 163.32 41.5867V30.4134C163.333 25.56 160.44 22.6667 155.587 22.6667ZM146.147 42.5334C146.147 42.9067 145.853 43.2 145.48 43.2H141.76C141.387 43.2 141.093 42.9067 141.093 42.5334V36.3734C141.093 35.5334 141.773 34.8534 142.613 34.8534H145.48C145.853 34.8534 146.147 35.1467 146.147 35.52V42.5334ZM152.52 42.5334C152.52 42.9067 152.227 43.2 151.853 43.2H148.133C147.76 43.2 147.467 42.9067 147.467 42.5334V30.32C147.467 29.48 148.147 28.8 148.987 28.8H151.013C151.853 28.8 152.533 29.48 152.533 30.32V42.5334H152.52ZM158.907 42.5334C158.907 42.9067 158.613 43.2 158.24 43.2H154.52C154.147 43.2 153.853 42.9067 153.853 42.5334V37.8C153.853 37.4267 154.147 37.1334 154.52 37.1334H157.387C158.227 37.1334 158.907 37.8134 158.907 38.6534V42.5334Z" fill="#292D32"/>
<path d="M155.587 22.6667H144.413C139.56 22.6667 136.667 25.56 136.667 30.4134V41.5734C136.667 46.44 139.56 49.3334 144.413 49.3334H155.573C160.427 49.3334 163.32 46.44 163.32 41.5867V30.4134C163.333 25.56 160.44 22.6667 155.587 22.6667ZM146.147 42.5334C146.147 42.9067 145.853 43.2 145.48 43.2H141.76C141.387 43.2 141.093 42.9067 141.093 42.5334V36.3734C141.093 35.5334 141.773 34.8534 142.613 34.8534H145.48C145.853 34.8534 146.147 35.1467 146.147 35.52V42.5334ZM152.52 42.5334C152.52 42.9067 152.227 43.2 151.853 43.2H148.133C147.76 43.2 147.467 42.9067 147.467 42.5334V30.32C147.467 29.48 148.147 28.8 148.987 28.8H151.013C151.853 28.8 152.533 29.48 152.533 30.32V42.5334H152.52ZM158.907 42.5334C158.907 42.9067 158.613 43.2 158.24 43.2H154.52C154.147 43.2 153.853 42.9067 153.853 42.5334V37.8C153.853 37.4267 154.147 37.1334 154.52 37.1334H157.387C158.227 37.1334 158.907 37.8134 158.907 38.6534V42.5334Z" fill="url(#paint8_linear_120_1420)"/>
<path d="M87.4351 101.28C86.7601 101.085 86.0551 100.98 85.3201 100.98H70.6801C69.6601 100.98 68.7001 101.175 67.8001 101.565C65.1901 102.69 63.3601 105.285 63.3601 108.3V111.225C63.3601 111.585 63.3901 111.93 63.4351 112.29C63.7651 117.06 66.3151 119.61 71.0851 119.925C71.4301 119.97 71.7751 120 72.1501 120H83.8501C89.4001 120 92.3251 117.36 92.6101 112.11C92.6251 111.825 92.6401 111.525 92.6401 111.225V108.3C92.6401 104.985 90.4351 102.195 87.4351 101.28ZM79.9201 110.25C80.6101 110.49 81.5401 111 81.5401 112.59C81.5401 113.955 80.4751 115.05 79.1551 115.05H78.7801V115.38C78.7801 115.815 78.4351 116.16 78.0001 116.16C77.5651 116.16 77.2201 115.815 77.2201 115.38V115.05H77.0851C75.6451 115.05 74.4601 113.835 74.4601 112.335C74.4601 111.9 74.8051 111.555 75.2401 111.555C75.6751 111.555 76.0201 111.9 76.0201 112.335C76.0201 112.965 76.5001 113.49 77.0851 113.49H77.2201V110.955L76.0801 110.55C75.3901 110.31 74.4601 109.8 74.4601 108.21C74.4601 106.845 75.5251 105.75 76.8451 105.75H77.2201V105.42C77.2201 104.985 77.5651 104.64 78.0001 104.64C78.4351 104.64 78.7801 104.985 78.7801 105.42V105.75H78.9151C80.3551 105.75 81.5401 106.965 81.5401 108.465C81.5401 108.9 81.1951 109.245 80.7601 109.245C80.3251 109.245 79.9801 108.9 79.9801 108.465C79.9801 107.835 79.5001 107.31 78.9151 107.31H78.7801V109.845L79.9201 110.25Z" fill="url(#paint6_linear_120_1420)"/>
<path d="M76.02 108.21C76.02 108.84 76.2 108.93 76.59 109.08L77.22 109.305V107.31H76.845C76.38 107.31 76.02 107.715 76.02 108.21Z" fill="#292D32"/>
<path d="M76.02 108.21C76.02 108.84 76.2 108.93 76.59 109.08L77.22 109.305V107.31H76.845C76.38 107.31 76.02 107.715 76.02 108.21Z" fill="url(#paint7_linear_120_1420)"/>
<path d="M155.587 22.6667H144.413C139.56 22.6667 136.667 25.56 136.667 30.4134V41.5734C136.667 46.44 139.56 49.3334 144.413 49.3334H155.573C160.427 49.3334 163.32 46.44 163.32 41.5867V30.4134C163.333 25.56 160.44 22.6667 155.587 22.6667ZM146.147 42.5334C146.147 42.9067 145.853 43.2 145.48 43.2H141.76C141.387 43.2 141.093 42.9067 141.093 42.5334V36.3734C141.093 35.5334 141.773 34.8534 142.613 34.8534H145.48C145.853 34.8534 146.147 35.1467 146.147 35.52V42.5334ZM152.52 42.5334C152.52 42.9067 152.227 43.2 151.853 43.2H148.133C147.76 43.2 147.467 42.9067 147.467 42.5334V30.32C147.467 29.48 148.147 28.8 148.987 28.8H151.013C151.853 28.8 152.533 29.48 152.533 30.32V42.5334H152.52ZM158.907 42.5334C158.907 42.9067 158.613 43.2 158.24 43.2H154.52C154.147 43.2 153.853 42.9067 153.853 42.5334V37.8C153.853 37.4267 154.147 37.1334 154.52 37.1334H157.387C158.227 37.1334 158.907 37.8134 158.907 38.6534V42.5334Z" fill="#292D32"/>
<path d="M155.587 22.6667H144.413C139.56 22.6667 136.667 25.56 136.667 30.4134V41.5734C136.667 46.44 139.56 49.3334 144.413 49.3334H155.573C160.427 49.3334 163.32 46.44 163.32 41.5867V30.4134C163.333 25.56 160.44 22.6667 155.587 22.6667ZM146.147 42.5334C146.147 42.9067 145.853 43.2 145.48 43.2H141.76C141.387 43.2 141.093 42.9067 141.093 42.5334V36.3734C141.093 35.5334 141.773 34.8534 142.613 34.8534H145.48C145.853 34.8534 146.147 35.1467 146.147 35.52V42.5334ZM152.52 42.5334C152.52 42.9067 152.227 43.2 151.853 43.2H148.133C147.76 43.2 147.467 42.9067 147.467 42.5334V30.32C147.467 29.48 148.147 28.8 148.987 28.8H151.013C151.853 28.8 152.533 29.48 152.533 30.32V42.5334H152.52ZM158.907 42.5334C158.907 42.9067 158.613 43.2 158.24 43.2H154.52C154.147 43.2 153.853 42.9067 153.853 42.5334V37.8C153.853 37.4267 154.147 37.1334 154.52 37.1334H157.387C158.227 37.1334 158.907 37.8134 158.907 38.6534V42.5334Z" fill="url(#paint8_linear_120_1420)"/>
<path d="M55.15 169.339C53.7333 167.773 51.3666 166.989 47.9333 166.989H47.5333V166.923C47.5333 164.123 47.5333 160.656 41.2666 160.656H38.7333C32.4666 160.656 32.4666 164.139 32.4666 166.923V167.006H32.0666C28.6166 167.006 26.2666 167.789 24.85 169.356C23.2 171.189 23.25 173.656 23.4166 175.339L23.4333 175.456L23.5774 176.969C23.5917 177.119 23.6726 177.255 23.7983 177.337C24.1645 177.578 24.9506 178.09 25.4 178.339C25.6333 178.489 25.8833 178.623 26.1333 178.756C28.9833 180.323 32.1166 181.373 35.3 181.889C35.45 183.456 36.1333 185.289 39.7833 185.289C43.4333 185.289 44.15 183.473 44.2666 181.856C47.6666 181.306 50.95 180.123 53.9166 178.389C54.0166 178.339 54.0833 178.289 54.1666 178.239C54.8697 177.842 55.6008 177.347 56.2571 176.869C56.3697 176.787 56.4421 176.661 56.4575 176.522L56.5 176.139L56.5833 175.356C56.6 175.256 56.6 175.173 56.6166 175.056C56.75 173.373 56.7166 171.073 55.15 169.339ZM41.8166 180.756C41.8166 182.523 41.8166 182.789 39.7666 182.789C37.7166 182.789 37.7166 182.473 37.7166 180.773V178.673H41.8166V180.756ZM34.85 166.989V166.923C34.85 164.089 34.85 163.039 38.7333 163.039H41.2666C45.15 163.039 45.15 164.106 45.15 166.923V167.006H34.85V166.989Z" fill="#292D32"/>
<path d="M55.15 169.339C53.7333 167.773 51.3666 166.989 47.9333 166.989H47.5333V166.923C47.5333 164.123 47.5333 160.656 41.2666 160.656H38.7333C32.4666 160.656 32.4666 164.139 32.4666 166.923V167.006H32.0666C28.6166 167.006 26.2666 167.789 24.85 169.356C23.2 171.189 23.25 173.656 23.4166 175.339L23.4333 175.456L23.5774 176.969C23.5917 177.119 23.6726 177.255 23.7983 177.337C24.1645 177.578 24.9506 178.09 25.4 178.339C25.6333 178.489 25.8833 178.623 26.1333 178.756C28.9833 180.323 32.1166 181.373 35.3 181.889C35.45 183.456 36.1333 185.289 39.7833 185.289C43.4333 185.289 44.15 183.473 44.2666 181.856C47.6666 181.306 50.95 180.123 53.9166 178.389C54.0166 178.339 54.0833 178.289 54.1666 178.239C54.8697 177.842 55.6008 177.347 56.2571 176.869C56.3697 176.787 56.4421 176.661 56.4575 176.522L56.5 176.139L56.5833 175.356C56.6 175.256 56.6 175.173 56.6166 175.056C56.75 173.373 56.7166 171.073 55.15 169.339ZM41.8166 180.756C41.8166 182.523 41.8166 182.789 39.7666 182.789C37.7166 182.789 37.7166 182.473 37.7166 180.773V178.673H41.8166V180.756ZM34.85 166.989V166.923C34.85 164.089 34.85 163.039 38.7333 163.039H41.2666C45.15 163.039 45.15 164.106 45.15 166.923V167.006H34.85V166.989Z" fill="url(#paint9_linear_120_1420)"/>
<path d="M55.3299 180.337C55.6825 180.167 56.0876 180.448 56.0522 180.838L55.3999 188.023C55.0499 191.356 53.6832 194.756 46.3499 194.756H33.6499C26.3166 194.756 24.9499 191.356 24.5999 188.039L23.9792 181.212C23.9441 180.826 24.3412 180.546 24.693 180.708C26.4307 181.505 30.6066 183.364 32.9685 183.945C33.1334 183.985 33.268 184.103 33.3351 184.259C34.3109 186.529 36.5351 187.739 39.7832 187.739C42.9992 187.739 45.2533 186.483 46.2312 184.209C46.2984 184.053 46.4327 183.936 46.5978 183.895C49.101 183.279 53.5229 181.209 55.3299 180.337Z" fill="#292D32"/>
<path d="M55.3299 180.337C55.6825 180.167 56.0876 180.448 56.0522 180.838L55.3999 188.023C55.0499 191.356 53.6832 194.756 46.3499 194.756H33.6499C26.3166 194.756 24.9499 191.356 24.5999 188.039L23.9792 181.212C23.9441 180.826 24.3412 180.546 24.693 180.708C26.4307 181.505 30.6066 183.364 32.9685 183.945C33.1334 183.985 33.268 184.103 33.3351 184.259C34.3109 186.529 36.5351 187.739 39.7832 187.739C42.9992 187.739 45.2533 186.483 46.2312 184.209C46.2984 184.053 46.4327 183.936 46.5978 183.895C49.101 183.279 53.5229 181.209 55.3299 180.337Z" fill="url(#paint10_linear_120_1420)"/>
<path d="M234 105V114C234 117.315 231.315 120 228 120H216C212.685 120 210 117.315 210 114V105C210 104.175 210.675 103.5 211.5 103.5H214.455C215.28 103.5 215.955 104.175 215.955 105V109.71C215.955 110.82 216.57 111.84 217.545 112.365C217.98 112.605 218.46 112.725 218.955 112.725C219.525 112.725 220.095 112.56 220.59 112.23L222.015 111.3L223.335 112.185C224.25 112.8 225.42 112.875 226.395 112.35C227.385 111.825 228 110.82 228 109.695V105C228 104.175 228.675 103.5 229.5 103.5H232.5C233.325 103.5 234 104.175 234 105Z" fill="#292D32"/>
<path d="M234 105V114C234 117.315 231.315 120 228 120H216C212.685 120 210 117.315 210 114V105C210 104.175 210.675 103.5 211.5 103.5H214.455C215.28 103.5 215.955 104.175 215.955 105V109.71C215.955 110.82 216.57 111.84 217.545 112.365C217.98 112.605 218.46 112.725 218.955 112.725C219.525 112.725 220.095 112.56 220.59 112.23L222.015 111.3L223.335 112.185C224.25 112.8 225.42 112.875 226.395 112.35C227.385 111.825 228 110.82 228 109.695V105C228 104.175 228.675 103.5 229.5 103.5H232.5C233.325 103.5 234 104.175 234 105Z" fill="url(#paint11_linear_120_1420)"/>
<path d="M236.25 97.5V99C236.25 100.65 235.455 102 233.25 102H210.75C208.455 102 207.75 100.65 207.75 99V97.5C207.75 95.85 208.455 94.5 210.75 94.5H233.25C235.455 94.5 236.25 95.85 236.25 97.5Z" fill="#292D32"/>
<path d="M236.25 97.5V99C236.25 100.65 235.455 102 233.25 102H210.75C208.455 102 207.75 100.65 207.75 99V97.5C207.75 95.85 208.455 94.5 210.75 94.5H233.25C235.455 94.5 236.25 95.85 236.25 97.5Z" fill="url(#paint12_linear_120_1420)"/>
<path d="M221.46 94.5H213.18C212.67 93.945 212.685 93.09 213.225 92.55L215.355 90.42C215.91 89.865 216.825 89.865 217.38 90.42L221.46 94.5Z" fill="#292D32"/>
<path d="M221.46 94.5H213.18C212.67 93.945 212.685 93.09 213.225 92.55L215.355 90.42C215.91 89.865 216.825 89.865 217.38 90.42L221.46 94.5Z" fill="url(#paint13_linear_120_1420)"/>
<path d="M230.805 94.5H222.525L226.605 90.42C227.16 89.865 228.075 89.865 228.63 90.42L230.76 92.55C231.3 93.09 231.315 93.945 230.805 94.5Z" fill="#292D32"/>
<path d="M230.805 94.5H222.525L226.605 90.42C227.16 89.865 228.075 89.865 228.63 90.42L230.76 92.55C231.3 93.09 231.315 93.945 230.805 94.5Z" fill="url(#paint14_linear_120_1420)"/>
<path d="M224.955 103.5C225.78 103.5 226.455 104.175 226.455 105V109.695C226.455 110.895 225.12 111.615 224.13 110.94L222.78 110.04C222.285 109.71 221.64 109.71 221.13 110.04L219.72 110.97C218.73 111.63 217.41 110.91 217.41 109.725V105C217.41 104.175 218.085 103.5 218.91 103.5H224.955Z" fill="#292D32"/>
<path d="M224.955 103.5C225.78 103.5 226.455 104.175 226.455 105V109.695C226.455 110.895 225.12 111.615 224.13 110.94L222.78 110.04C222.285 109.71 221.64 109.71 221.13 110.04L219.72 110.97C218.73 111.63 217.41 110.91 217.41 109.725V105C217.41 104.175 218.085 103.5 218.91 103.5H224.955Z" fill="url(#paint15_linear_120_1420)"/>
<circle cx="236.5" cy="26.2909" r="0.5" transform="rotate(154.305 236.5 26.2909)" fill="#E8E8E8"/>
<circle cx="196.5" cy="43.6256" r="0.5" transform="rotate(154.305 196.5 43.6256)" fill="#E8E8E8"/>
<circle cx="217.167" cy="42.5288" r="1" transform="rotate(154.305 217.167 42.5288)" fill="#E8E8E8"/>
<circle cx="177.167" cy="82.5288" r="1" transform="rotate(154.305 177.167 82.5288)" fill="#E8E8E8"/>
<circle cx="206.5" cy="100.837" r="0.5" transform="rotate(-85.2473 206.5 100.837)" fill="#E8E8E8"/>
<circle cx="186.5" cy="90.8367" r="0.5" transform="rotate(-85.2473 186.5 90.8367)" fill="#E8E8E8"/>
<circle cx="216.5" cy="20.8367" r="0.5" transform="rotate(-85.2473 216.5 20.8367)" fill="#E8E8E8"/>
<circle cx="235.5" cy="50.8367" r="0.5" transform="rotate(-85.2473 235.5 50.8367)" fill="#E8E8E8"/>
<path d="M184.533 224.567L183.567 215.333C182.167 205.267 177.6 201.167 167.833 201.167H159.967H155.033H144.9H139.967H131.967C122.167 201.167 117.633 205.267 116.2 215.433L115.3 224.6C114.967 228.167 115.933 231.633 118.033 234.333C120.567 237.633 124.467 239.5 128.8 239.5C133 239.5 137.033 237.4 139.567 234.033C141.833 237.4 145.7 239.5 150 239.5C154.3 239.5 158.067 237.5 160.367 234.167C162.933 237.467 166.9 239.5 171.033 239.5C175.467 239.5 179.467 237.533 181.967 234.067C183.967 231.4 184.867 228.033 184.533 224.567Z" fill="#292D32"/>
<path d="M184.533 224.567L183.567 215.333C182.167 205.267 177.6 201.167 167.833 201.167H159.967H155.033H144.9H139.967H131.967C122.167 201.167 117.633 205.267 116.2 215.433L115.3 224.6C114.967 228.167 115.933 231.633 118.033 234.333C120.567 237.633 124.467 239.5 128.8 239.5C133 239.5 137.033 237.4 139.567 234.033C141.833 237.4 145.7 239.5 150 239.5C154.3 239.5 158.067 237.5 160.367 234.167C162.933 237.467 166.9 239.5 171.033 239.5C175.467 239.5 179.467 237.533 181.967 234.067C183.967 231.4 184.867 228.033 184.533 224.567Z" fill="url(#paint16_linear_120_1420)"/>
<path d="M147.833 252.533C143.6 252.967 140.4 256.567 140.4 260.833V269.967C140.4 270.867 141.133 271.6 142.033 271.6H157.933C158.833 271.6 159.567 270.867 159.567 269.967V262C159.6 255.033 155.5 251.733 147.833 252.533Z" fill="#292D32"/>
<path d="M147.833 252.533C143.6 252.967 140.4 256.567 140.4 260.833V269.967C140.4 270.867 141.133 271.6 142.033 271.6H157.933C158.833 271.6 159.567 270.867 159.567 269.967V262C159.6 255.033 155.5 251.733 147.833 252.533Z" fill="url(#paint17_linear_120_1420)"/>
<path d="M181.233 245V254.933C181.233 264.133 173.767 271.6 164.567 271.6C163.667 271.6 162.933 270.867 162.933 269.967V262C162.933 257.733 161.633 254.4 159.1 252.133C156.867 250.1 153.833 249.1 150.067 249.1C149.233 249.1 148.4 249.133 147.5 249.233C141.567 249.833 137.067 254.833 137.067 260.833V269.967C137.067 270.867 136.333 271.6 135.433 271.6C126.233 271.6 118.767 264.133 118.767 254.933V245.067C118.767 242.733 121.067 241.167 123.233 241.933C124.133 242.233 125.033 242.467 125.967 242.6C126.367 242.667 126.8 242.733 127.2 242.733C127.733 242.8 128.267 242.833 128.8 242.833C132.667 242.833 136.467 241.4 139.467 238.933C142.333 241.4 146.067 242.833 150 242.833C153.967 242.833 157.633 241.467 160.5 239C163.5 241.433 167.233 242.833 171.033 242.833C171.633 242.833 172.233 242.8 172.8 242.733C173.2 242.7 173.567 242.667 173.933 242.6C174.967 242.467 175.9 242.167 176.833 241.867C179 241.133 181.233 242.733 181.233 245Z" fill="#292D32"/>
<path d="M181.233 245V254.933C181.233 264.133 173.767 271.6 164.567 271.6C163.667 271.6 162.933 270.867 162.933 269.967V262C162.933 257.733 161.633 254.4 159.1 252.133C156.867 250.1 153.833 249.1 150.067 249.1C149.233 249.1 148.4 249.133 147.5 249.233C141.567 249.833 137.067 254.833 137.067 260.833V269.967C137.067 270.867 136.333 271.6 135.433 271.6C126.233 271.6 118.767 264.133 118.767 254.933V245.067C118.767 242.733 121.067 241.167 123.233 241.933C124.133 242.233 125.033 242.467 125.967 242.6C126.367 242.667 126.8 242.733 127.2 242.733C127.733 242.8 128.267 242.833 128.8 242.833C132.667 242.833 136.467 241.4 139.467 238.933C142.333 241.4 146.067 242.833 150 242.833C153.967 242.833 157.633 241.467 160.5 239C163.5 241.433 167.233 242.833 171.033 242.833C171.633 242.833 172.233 242.8 172.8 242.733C173.2 242.7 173.567 242.667 173.933 242.6C174.967 242.467 175.9 242.167 176.833 241.867C179 241.133 181.233 242.733 181.233 245Z" fill="url(#paint18_linear_120_1420)"/>
<g filter="url(#filter0_f_120_1420)">
<path d="M423.338 -188.461L447.458 -159.833L101.939 294.236L370.51 -109.295L423.338 -188.461Z" fill="url(#paint19_linear_120_1420)"/>
<path d="M424.103 -189.106L448.223 -160.478L448.739 -159.865L448.254 -159.228L102.735 294.842L101.106 293.682L369.678 -109.849L369.678 -109.85L422.506 -189.016L423.245 -190.124L424.103 -189.106Z" stroke="white" stroke-width="2"/>
</g>
<g opacity="0.3" clip-path="url(#clip1_120_1420)">
<circle cx="63.7034" cy="226.405" r="1.5" transform="rotate(178.182 63.7034 226.405)" fill="#E8E8E8"/>
<circle cx="130.144" cy="104.207" r="1" transform="rotate(178.182 130.144 104.207)" fill="#E8E8E8"/>
<circle cx="205.25" cy="94.7036" r="1.5" transform="rotate(178.182 205.25 94.7036)" fill="#E8E8E8"/>
<circle cx="47.3079" cy="1.13959" r="1.5" transform="rotate(178.182 47.3079 1.13959)" fill="#E8E8E8"/>
<circle cx="157.806" cy="189.396" r="1.5" transform="rotate(178.182 157.806 189.396)" fill="#E8E8E8"/>
<circle cx="-0.136427" cy="95.8317" r="1.5" transform="rotate(178.182 -0.136427 95.8317)" fill="#E8E8E8"/>
<circle cx="228.89" cy="176.128" r="1.5" transform="rotate(178.182 228.89 176.128)" fill="#E8E8E8"/>
<circle cx="202.742" cy="45.5066" r="0.5" transform="rotate(-115.247 202.742 45.5066)" fill="#E8E8E8"/>
<circle cx="53.1972" cy="166.487" r="0.5" transform="rotate(-115.247 53.1972 166.487)" fill="#E8E8E8"/>
<circle cx="111.408" cy="28.2679" r="1.5" transform="rotate(-115.247 111.408 28.2679)" fill="#E8E8E8"/>
</g>
</g>
<rect x="1.5" y="1.5" width="297" height="297" rx="18.5" stroke="url(#paint20_linear_120_1420)" stroke-width="3"/>
<defs>
<filter id="filter0_f_120_1420" x="-29.7256" y="-321.786" width="609.746" height="747.233" filterUnits="userSpaceOnUse" color-interpolation-filters="sRGB">
<feFlood flood-opacity="0" result="BackgroundImageFix"/>
<feBlend mode="normal" in="SourceGraphic" in2="BackgroundImageFix" result="shape"/>
<feGaussianBlur stdDeviation="65" result="effect1_foregroundBlur_120_1420"/>
</filter>
<linearGradient id="paint0_linear_120_1420" x1="261.314" y1="181.131" x2="264.512" y2="181.196" gradientUnits="userSpaceOnUse">
<stop stop-color="white"/>
<stop offset="1" stop-color="#595959"/>
</linearGradient>
<linearGradient id="paint1_linear_120_1420" x1="244.03" y1="170.626" x2="278.769" y2="171.719" gradientUnits="userSpaceOnUse">
<stop stop-color="white"/>
<stop offset="1" stop-color="#595959"/>
</linearGradient>
<linearGradient id="paint2_linear_120_1420" x1="255.764" y1="172.819" x2="258.944" y2="172.883" gradientUnits="userSpaceOnUse">
<stop stop-color="white"/>
<stop offset="1" stop-color="#595959"/>
</linearGradient>
<linearGradient id="paint3_linear_120_1420" x1="69.1129" y1="92.5307" x2="78.4764" y2="92.8286" gradientUnits="userSpaceOnUse">
<stop stop-color="white"/>
<stop offset="1" stop-color="#595959"/>
</linearGradient>
<linearGradient id="paint4_linear_120_1420" x1="76.1874" y1="93.151" x2="89.0051" y2="93.7454" gradientUnits="userSpaceOnUse">
<stop stop-color="white"/>
<stop offset="1" stop-color="#595959"/>
</linearGradient>
<linearGradient id="paint5_linear_120_1420" x1="78.8051" y1="112.061" x2="80.0565" y2="112.085" gradientUnits="userSpaceOnUse">
<stop stop-color="white"/>
<stop offset="1" stop-color="#595959"/>
</linearGradient>
<linearGradient id="paint6_linear_120_1420" x1="63.9722" y1="106.378" x2="94.4451" y2="107.854" gradientUnits="userSpaceOnUse">
<stop stop-color="white"/>
<stop offset="1" stop-color="#595959"/>
</linearGradient>
<linearGradient id="paint7_linear_120_1420" x1="76.0451" y1="107.876" x2="77.2965" y2="107.9" gradientUnits="userSpaceOnUse">
<stop stop-color="white"/>
<stop offset="1" stop-color="#595959"/>
</linearGradient>
<linearGradient id="paint8_linear_120_1420" x1="137.224" y1="30.2343" x2="165.001" y2="31.1078" gradientUnits="userSpaceOnUse">
<stop stop-color="white"/>
<stop offset="1" stop-color="#595959"/>
</linearGradient>
<linearGradient id="paint9_linear_120_1420" x1="24.0349" y1="167.647" x2="58.739" y2="169.124" gradientUnits="userSpaceOnUse">
<stop stop-color="white"/>
<stop offset="1" stop-color="#595959"/>
</linearGradient>
<linearGradient id="paint10_linear_120_1420" x1="24.5738" y1="184.148" x2="58.0421" y2="186.44" gradientUnits="userSpaceOnUse">
<stop stop-color="white"/>
<stop offset="1" stop-color="#595959"/>
</linearGradient>
<linearGradient id="paint11_linear_120_1420" x1="210.502" y1="108.182" x2="235.486" y2="109.326" gradientUnits="userSpaceOnUse">
<stop stop-color="white"/>
<stop offset="1" stop-color="#595959"/>
</linearGradient>
<linearGradient id="paint12_linear_120_1420" x1="208.346" y1="96.6284" x2="237.657" y2="100.133" gradientUnits="userSpaceOnUse">
<stop stop-color="white"/>
<stop offset="1" stop-color="#595959"/>
</linearGradient>
<linearGradient id="paint13_linear_120_1420" x1="212.989" y1="91.2797" x2="221.981" y2="91.8241" gradientUnits="userSpaceOnUse">
<stop stop-color="white"/>
<stop offset="1" stop-color="#595959"/>
</linearGradient>
<linearGradient id="paint14_linear_120_1420" x1="222.706" y1="91.2797" x2="231.698" y2="91.8241" gradientUnits="userSpaceOnUse">
<stop stop-color="white"/>
<stop offset="1" stop-color="#595959"/>
</linearGradient>
<linearGradient id="paint15_linear_120_1420" x1="217.599" y1="105.691" x2="227.022" y2="106.038" gradientUnits="userSpaceOnUse">
<stop stop-color="white"/>
<stop offset="1" stop-color="#595959"/>
</linearGradient>
<linearGradient id="paint16_linear_120_1420" x1="116.686" y1="212.045" x2="188.813" y2="216.152" gradientUnits="userSpaceOnUse">
<stop stop-color="white"/>
<stop offset="1" stop-color="#595959"/>
</linearGradient>
<linearGradient id="paint17_linear_120_1420" x1="140.801" y1="257.86" x2="160.775" y2="258.488" gradientUnits="userSpaceOnUse">
<stop stop-color="white"/>
<stop offset="1" stop-color="#595959"/>
</linearGradient>
<linearGradient id="paint18_linear_120_1420" x1="120.073" y1="248.204" x2="185.002" y2="252.11" gradientUnits="userSpaceOnUse">
<stop stop-color="white"/>
<stop offset="1" stop-color="#595959"/>
</linearGradient>
<linearGradient id="paint19_linear_120_1420" x1="304.136" y1="-66.9972" x2="373.011" y2="-6.78659" gradientUnits="userSpaceOnUse">
<stop stop-color="white"/>
<stop offset="0.819" stop-color="#595959"/>
<stop offset="0.959" stop-color="#E82DDC"/>
</linearGradient>
<linearGradient id="paint20_linear_120_1420" x1="150" y1="-1.5385e-05" x2="369.982" y2="68.8359" gradientUnits="userSpaceOnUse">
<stop stop-color="#616161" stop-opacity="0.4"/>
<stop offset="1" stop-color="#C7C7C7" stop-opacity="0.1"/>
</linearGradient>
<clipPath id="clip0_120_1420">
<rect width="300" height="300" rx="20" fill="white"/>
</clipPath>
<clipPath id="clip1_120_1420">
<rect width="1259.65" height="1002.81" fill="white" transform="translate(-616 -206.814) rotate(-30)"/>
</clipPath>
</defs>
</svg>
